<svg width="536" height="78" xmlns="http://www.w3.org/2000/svg" xmlns:xlink="http://www.w3.org/1999/xlink" xml:space="preserve" overflow="hidden"><g transform="translate(-3694 -132)"><g><path d="M3884.76 139.055 3885.71 139.109C3890.66 139.388 3890.66 140.386 3890.65 146.86L3890.65 185.601 3844.78 134 3828.74 134 3828.74 138.954 3829.62 139.042C3832.27 139.221 3832.97 140.098 3833.02 141.546L3833.02 192.771C3833.02 199.212 3833.02 200.94 3827.96 201.169L3827 201.219 3827 206.228 3846.62 206.228 3846.62 201.274 3845.69 201.203C3840.88 200.831 3840.88 198.949 3840.89 191.928L3840.89 150.42 3891.02 206.662 3891.32 207 3898.52 207 3898.52 148.003C3898.52 140.804 3898.91 139.534 3903.07 139.142L3904 139.063 3904 134 3884.76 134Z" fill="#000000" fill-rule="evenodd" fill-opacity="1"/><path d="M3727.62 163.381 3727.62 163.381C3719.37 159.325 3711.57 155.491 3711.57 149.299 3711.57 145.152 3715.02 139.014 3722.4 139.014 3730.93 139.014 3736.03 141.302 3739.24 146.995L3739.52 147.556 3744.95 147.498 3742.6 134.084 3739.16 134.084 3738.63 134.319C3737.79 134.733 3736.85 134.932 3735.91 134.896 3734.48 134.843 3733.85 134.612 3732.48 134.34 3731.9 134.22 3731.25 134.059 3730.45 133.928 3727.33 133.313 3724.15 133.003 3720.96 133 3708.21 133 3697.83 141.702 3697.83 152.403 3697.83 163.233 3708.57 168.892 3718.95 174.35 3727.67 178.943 3735.9 183.292 3735.9 190.085 3735.9 196.479 3729.89 201.302 3721.92 201.302 3711.03 201.302 3704.32 198.214 3701.4 191.874L3701.15 191.256 3696 191.256 3698.29 206.351 3702.45 206.351 3702.74 206.079C3703.36 205.535 3704.13 205.498 3705.35 205.51 3706.57 205.523 3707.98 205.857 3709.81 206.289 3714.04 207.399 3718.39 207.974 3722.77 208 3738.55 208 3750 199.067 3750 186.758 3750 174.449 3738.09 168.542 3727.62 163.381" fill="#000000" fill-rule="evenodd" fill-opacity="1"/><path d="M3765.67 196.814C3765.6 199.622 3765.52 200.558 3762.92 200.816L3762 200.904 3762 206 3814.23 206 3816 191.601 3810.51 191.643 3810.29 192.329C3808.12 199.031 3805.89 199.011 3798.55 198.957L3785.14 198.957C3779.9 198.957 3779.75 197.945 3779.75 191.846L3779.75 172.342 3794.1 172.342C3798.88 172.342 3799.88 172.446 3800.8 176.253L3800.96 177.085 3806.18 177.085 3806.18 160.86 3801.04 160.86 3800.91 161.692C3800.31 165.053 3799.19 165.315 3794.1 165.315L3779.75 165.315 3779.75 141.048 3798.97 141.048C3803.91 141.048 3805.52 141.048 3806.82 146.165L3807.02 146.897 3812.51 146.897 3811.61 134 3762.08 134 3762.08 139.046 3763.01 139.109C3765.64 139.421 3765.65 140.357 3765.68 145.52Z" fill="#000000" fill-rule="evenodd" fill-opacity="1"/><path d="M4201.52 179.516C4200.72 178.731 4196.79 174.847 4194.26 172.708 4203.12 168.6 4207.59 162.353 4207.59 154.133 4207.59 147.778 4204.51 133 4175.93 133 4173.59 133 4168.11 133 4162.09 133.224 4158.46 133.382 4156.33 133.494 4154.46 133.59L4151.32 133.797 4151.32 138.886 4152.23 138.927C4154.49 139.089 4155.35 139.667 4155.38 141.893L4155.33 194.535C4155.2 198.901 4154.91 200.72 4149.96 200.948L4149 200.998 4149 205.982 4176.54 205.982 4176.54 200.969 4175.59 200.969C4170.03 200.699 4170.03 199.449 4170.03 191.32L4170.03 177.069C4172.95 177.237 4175.87 177.212 4178.78 176.995 4183.23 180.267 4184.9 181.821 4190.59 187.478L4196.58 193.422C4197.94 194.776 4199.11 196.005 4200.14 197.09 4201.08 198.07 4201.89 198.984 4202.62 199.794 4207.05 204.741 4209.07 207 4221.71 207 4222.98 207 4224.33 207 4225.85 206.942L4227 206.917 4227 201.912 4225.93 201.816C4222.95 201.542 4221.16 199.644 4217.58 195.864L4210.66 188.699ZM4191.89 155.259C4191.89 166.785 4186.56 171.52 4172.68 172.048 4172.26 172.048 4171.05 172.048 4170.04 171.936L4170.04 138.441C4171.42 138.387 4173.54 138.387 4174.78 138.387 4186.18 138.383 4191.89 144.057 4191.89 155.259Z" fill="#000000" fill-rule="evenodd" fill-opacity="1"/><path d="M3952.96 134 3941.86 134 3918.04 192.455C3915.22 199.371 3914.7 200.619 3909.95 200.947L3909 201.01 3909 206 3929.54 206 3929.54 201.047 3928.62 200.968C3924.8 200.552 3923.92 199.13 3924.03 197.554 3924.11 196.568 3924.41 195.408 3925.13 193.503L3930.64 179.547 3955.96 179.547 3961.47 193.47C3962.35 195.936 3962.55 196.414 3962.88 197.857L3962.92 198.024C3963.06 198.596 3962.92 199.2 3962.54 199.658 3962.01 200.315 3960.69 200.71 3958.44 200.881L3957.51 200.951 3957.51 205.984 3984 205.984 3984 201.043 3983.03 200.993C3978.5 200.789 3978.09 199.691 3975.83 193.603ZM3953.04 172.073 3933.54 172.073 3943.44 147.15Z" fill="#000000" fill-rule="evenodd" fill-opacity="1"/><path d="M4102.5 133C4079.6 133 4063 149.567 4063 172.4 4063 193.012 4079.44 208 4102.08 208 4124.84 208 4142 191.35 4142 169.272 4142 147.914 4125.76 133 4102.5 133ZM4127.22 172.063C4127.22 190.242 4117.8 202.452 4103.76 202.452 4090.85 202.452 4077.78 191.091 4077.78 169.383 4077.78 150.363 4086.93 138.545 4101.65 138.545 4116.71 138.545 4127.22 152.329 4127.22 172.063Z" fill="#000000" fill-rule="evenodd" fill-opacity="1"/><path d="M4058 191.231 4052.16 191.301 4051.87 191.693C4045.96 198.799 4039.78 201.689 4029.92 201.998 4023.33 202.229 4017.28 199.851 4012.34 195.188 4005.8 189.005 4002.05 179.437 4002.05 168.93 4002.05 150.751 4012.48 138.536 4027.99 138.536 4038.88 138.536 4047.96 143.211 4051.7 150.746L4051.99 151.299 4056.83 151.225 4056.36 136.22 4052.39 136.22 4052.19 136.356C4051.73 136.615 4051.2 136.728 4050.68 136.681 4049.74 136.648 4048.14 136.269 4046.08 135.733 4041.85 134.649 4035.43 133 4027.56 133 3999.54 133 3987 152.502 3987 171.836 3987 193.803 4002.58 208 4026.69 208 4032.08 208 4036.95 207.114 4040.89 206.397 4043.55 205.91 4046.1 205.473 4048.26 205.428 4048.73 205.428 4049.06 205.428 4049.34 205.395 4050.13 205.374 4050.93 205.392 4051.72 205.448L4052.81 205.552Z" fill="#000000" fill-rule="evenodd" fill-opacity="1"/></g></g></svg>